<mxfile host="app.diagrams.net" modified="2024-02-04T16:02:58.150Z" agent="Mozilla/5.0 (Windows NT 10.0; Win64; x64) AppleWebKit/537.36 (KHTML, like Gecko) Chrome/121.0.0.0 Safari/537.36 Edg/121.0.0.0" version="23.1.1" etag="cxCISJBytfTyvC5B56SR" type="github">
  <diagram name="Page-1" id="fqRPTw9rEbrpvfVbGFxZ">
    <mxGraphModel>
      <root>
        <mxCell id="0" />
        <mxCell id="1" parent="0" />
      </root>
    </mxGraphModel>
  </diagram>
</mxfile>
